<svg width="13" height="14" viewBox="0 0 13 14" fill="none" xmlns="http://www.w3.org/2000/svg">
<path d="M6.81177 13.5625C5.09602 13.5625 3.48616 12.8463 2.27868 11.546C1.07121 10.2457 0.40625 8.51192 0.40625 6.66416C0.405994 5.3895 0.733723 4.1397 1.35306 3.05347C1.9724 1.96724 2.85912 1.08708 3.9148 0.510671C4.02341 0.451047 4.14592 0.427194 4.26704 0.442091C4.38816 0.456988 4.50252 0.509974 4.59585 0.594435C4.68918 0.678896 4.75735 0.79109 4.79183 0.917013C4.82632 1.04293 4.8256 1.17701 4.78976 1.30249C4.48852 2.35036 4.45891 3.46696 4.70414 4.53164C4.94937 5.59631 5.46011 6.56857 6.18117 7.34336C6.69862 7.90476 7.31434 8.35005 7.99268 8.65346C8.67102 8.95687 9.3985 9.11236 10.133 9.11094C10.6949 9.1114 11.2537 9.02063 11.7904 8.84171C11.907 8.80309 12.0315 8.8023 12.1484 8.83943C12.2654 8.87656 12.3696 8.94997 12.448 9.05049C12.5264 9.15101 12.5756 9.27419 12.5895 9.40464C12.6033 9.53509 12.5811 9.66704 12.5257 9.784C11.9905 10.9209 11.1732 11.8758 10.1646 12.5428C9.15592 13.2098 7.99539 13.5628 6.81177 13.5625ZM3.89264 1.52526C3.07401 2.06166 2.39778 2.81649 1.92936 3.71675C1.46093 4.617 1.21617 5.63221 1.21875 6.66416C1.21875 9.98542 3.72775 12.6875 6.81177 12.6875C7.77002 12.6903 8.71271 12.4267 9.54867 11.9222C10.3846 11.4178 11.0855 10.6895 11.5836 9.80793C11.108 9.92649 10.6213 9.98623 10.1331 9.98602C9.29181 9.98774 8.4586 9.80976 7.68165 9.46236C6.9047 9.11496 6.19946 8.60505 5.60673 7.96214C4.83672 7.13448 4.27527 6.10914 3.97536 4.98293C3.67545 3.85672 3.64698 2.66678 3.89264 1.52543V1.52526Z" fill="#2B3945"/>
<path d="M6.81177 13.5625C5.09602 13.5625 3.48616 12.8463 2.27868 11.546C1.07121 10.2457 0.40625 8.51192 0.40625 6.66416C0.405994 5.3895 0.733723 4.1397 1.35306 3.05347C1.9724 1.96724 2.85912 1.08708 3.9148 0.510671C4.02341 0.451047 4.14592 0.427194 4.26704 0.442091C4.38816 0.456988 4.50252 0.509974 4.59585 0.594435C4.68918 0.678896 4.75735 0.79109 4.79183 0.917013C4.82632 1.04293 4.8256 1.17701 4.78976 1.30249C4.48852 2.35036 4.45891 3.46696 4.70414 4.53164C4.94937 5.59631 5.46011 6.56857 6.18117 7.34336C6.69862 7.90476 7.31434 8.35005 7.99268 8.65346C8.67102 8.95687 9.3985 9.11236 10.133 9.11094C10.6949 9.1114 11.2537 9.02063 11.7904 8.84171C11.907 8.80309 12.0315 8.8023 12.1484 8.83943C12.2654 8.87656 12.3696 8.94997 12.448 9.05049C12.5264 9.15101 12.5756 9.27419 12.5895 9.40464C12.6033 9.53509 12.5811 9.66704 12.5257 9.784C11.9905 10.9209 11.1732 11.8758 10.1646 12.5428C9.15592 13.2098 7.99539 13.5628 6.81177 13.5625ZM3.89264 1.52526C3.07401 2.06166 2.39778 2.81649 1.92936 3.71675C1.46093 4.617 1.21617 5.63221 1.21875 6.66416C1.21875 9.98542 3.72775 12.6875 6.81177 12.6875C7.77002 12.6903 8.71271 12.4267 9.54867 11.9222C10.3846 11.4178 11.0855 10.6895 11.5836 9.80793C11.108 9.92649 10.6213 9.98623 10.1331 9.98602C9.29181 9.98774 8.4586 9.80976 7.68165 9.46236C6.9047 9.11496 6.19946 8.60505 5.60673 7.96214C4.83672 7.13448 4.27527 6.10914 3.97536 4.98293C3.67545 3.85672 3.64698 2.66678 3.89264 1.52543V1.52526Z" fill="black" fill-opacity="0.2"/>
</svg>
